<svg xmlns="http://www.w3.org/2000/svg" viewBox="0 0 520 620" role="img" aria-label="Enterprise security network illustration">
  <defs>
    <radialGradient id="heroBg" cx="50%" cy="35%" r="70%">
      <stop offset="0%" stop-color="#9b7aff" stop-opacity="0.18"/>
      <stop offset="55%" stop-color="#4dd6ff" stop-opacity="0.06"/>
      <stop offset="100%" stop-color="#0a0e17" stop-opacity="0"/>
    </radialGradient>
    <linearGradient id="shieldFill" x1="0%" y1="0%" x2="100%" y2="100%">
      <stop offset="0%" stop-color="#9b7aff" stop-opacity="0.35"/>
      <stop offset="100%" stop-color="#4dd6ff" stop-opacity="0.12"/>
    </linearGradient>
    <linearGradient id="shieldStroke" x1="0%" y1="0%" x2="100%" y2="100%">
      <stop offset="0%" stop-color="#b69bff"/>
      <stop offset="100%" stop-color="#4dd6ff"/>
    </linearGradient>
    <radialGradient id="nodeGlow" cx="50%" cy="50%" r="50%">
      <stop offset="0%" stop-color="#b69bff" stop-opacity="1"/>
      <stop offset="100%" stop-color="#9b7aff" stop-opacity="0"/>
    </radialGradient>
    <pattern id="gridDots" width="32" height="32" patternUnits="userSpaceOnUse">
      <circle cx="1" cy="1" r="1" fill="#8b95a8" fill-opacity="0.18"/>
    </pattern>
  </defs>

  <rect width="520" height="620" fill="url(#heroBg)"/>
  <rect width="520" height="620" fill="url(#gridDots)"/>

  <!-- concentric rings -->
  <g stroke="#4dd6ff" stroke-opacity="0.18" fill="none">
    <circle cx="260" cy="310" r="240" stroke-dasharray="2 6"/>
    <circle cx="260" cy="310" r="180" stroke-dasharray="2 6"/>
    <circle cx="260" cy="310" r="120" stroke-dasharray="2 6"/>
  </g>

  <!-- connection lines -->
  <g stroke="#9b7aff" stroke-opacity="0.35" stroke-width="1">
    <line x1="260" y1="310" x2="80" y2="150"/>
    <line x1="260" y1="310" x2="440" y2="140"/>
    <line x1="260" y1="310" x2="60" y2="420"/>
    <line x1="260" y1="310" x2="460" y2="440"/>
    <line x1="260" y1="310" x2="150" y2="540"/>
    <line x1="260" y1="310" x2="380" y2="560"/>
  </g>

  <!-- outer nodes -->
  <g>
    <circle cx="80" cy="150" r="22" fill="url(#nodeGlow)"/>
    <circle cx="80" cy="150" r="8" fill="#9b7aff"/>
    <circle cx="440" cy="140" r="22" fill="url(#nodeGlow)"/>
    <circle cx="440" cy="140" r="8" fill="#4dd6ff"/>
    <circle cx="60" cy="420" r="22" fill="url(#nodeGlow)"/>
    <circle cx="60" cy="420" r="8" fill="#4dd6ff"/>
    <circle cx="460" cy="440" r="22" fill="url(#nodeGlow)"/>
    <circle cx="460" cy="440" r="8" fill="#9b7aff"/>
    <circle cx="150" cy="540" r="22" fill="url(#nodeGlow)"/>
    <circle cx="150" cy="540" r="8" fill="#ffb86b"/>
    <circle cx="380" cy="560" r="22" fill="url(#nodeGlow)"/>
    <circle cx="380" cy="560" r="8" fill="#9b7aff"/>
  </g>

  <!-- central shield -->
  <g transform="translate(260 310)">
    <path d="M0 -140 L120 -96 L120 20 C120 90 60 140 0 160 C-60 140 -120 90 -120 20 L-120 -96 Z"
          fill="url(#shieldFill)" stroke="url(#shieldStroke)" stroke-width="2"/>
    <path d="M0 -140 L120 -96 L120 20 C120 90 60 140 0 160 C-60 140 -120 90 -120 20 L-120 -96 Z"
          fill="none" stroke="#9b7aff" stroke-opacity="0.25" stroke-width="1" transform="scale(0.72)"/>
    <path d="M-44 6 L-10 40 L50 -30" fill="none" stroke="#e8edf5" stroke-width="6"
          stroke-linecap="round" stroke-linejoin="round"/>
  </g>

  <!-- floating code glyphs -->
  <g font-family="JetBrains Mono, monospace" font-size="11" fill="#8b95a8" fill-opacity="0.7">
    <text x="38" y="60">0xA1 :: auth</text>
    <text x="360" y="80">TLS 1.3 :: ok</text>
    <text x="28" y="590">policy :: enforced</text>
    <text x="340" y="610">audit :: streaming</text>
  </g>
</svg>
