<svg xmlns="http://www.w3.org/2000/svg" viewBox="0 0 480 240" role="img" aria-label="Cybersecurity illustration">
  <defs>
    <linearGradient id="cyberBg" x1="0%" y1="0%" x2="100%" y2="100%">
      <stop offset="0%" stop-color="#1a1040" stop-opacity="0.9"/>
      <stop offset="100%" stop-color="#0f1726" stop-opacity="1"/>
    </linearGradient>
    <linearGradient id="cyberShield" x1="0%" y1="0%" x2="0%" y2="100%">
      <stop offset="0%" stop-color="#b69bff"/>
      <stop offset="100%" stop-color="#9b7aff" stop-opacity="0.4"/>
    </linearGradient>
    <radialGradient id="scanGlow" cx="50%" cy="50%" r="50%">
      <stop offset="0%" stop-color="#9b7aff" stop-opacity="0.35"/>
      <stop offset="100%" stop-color="#9b7aff" stop-opacity="0"/>
    </radialGradient>
    <pattern id="cyberGrid" width="24" height="24" patternUnits="userSpaceOnUse">
      <path d="M24 0 L0 0 0 24" fill="none" stroke="#9b7aff" stroke-opacity="0.08" stroke-width="1"/>
    </pattern>
  </defs>
  <rect width="480" height="240" fill="url(#cyberBg)"/>
  <rect width="480" height="240" fill="url(#cyberGrid)"/>

  <!-- radar arcs -->
  <g transform="translate(240 130)" fill="none" stroke="#4dd6ff" stroke-opacity="0.25">
    <circle r="110"/>
    <circle r="80"/>
    <circle r="50"/>
  </g>

  <!-- scan glow -->
  <circle cx="240" cy="130" r="90" fill="url(#scanGlow)"/>

  <!-- shield -->
  <g transform="translate(240 130)">
    <path d="M0 -70 L56 -46 L56 12 C56 48 30 68 0 78 C-30 68 -56 48 -56 12 L-56 -46 Z"
          fill="url(#cyberShield)" stroke="#b69bff" stroke-width="1.5"/>
    <path d="M-22 4 L-6 20 L24 -14" fill="none" stroke="#ffffff" stroke-width="4"
          stroke-linecap="round" stroke-linejoin="round"/>
  </g>

  <!-- perimeter nodes -->
  <g fill="#4dd6ff">
    <circle cx="80" cy="60" r="4"/>
    <circle cx="400" cy="60" r="4"/>
    <circle cx="80" cy="200" r="4"/>
    <circle cx="400" cy="200" r="4"/>
  </g>
  <g stroke="#4dd6ff" stroke-opacity="0.35" stroke-dasharray="3 4">
    <line x1="80" y1="60" x2="184" y2="100"/>
    <line x1="400" y1="60" x2="296" y2="100"/>
    <line x1="80" y1="200" x2="184" y2="160"/>
    <line x1="400" y1="200" x2="296" y2="160"/>
  </g>

  <!-- corner brackets -->
  <g stroke="#ffb86b" stroke-width="1.5" fill="none" stroke-opacity="0.7">
    <path d="M20 20 L20 40 M20 20 L40 20"/>
    <path d="M460 20 L460 40 M460 20 L440 20"/>
    <path d="M20 220 L20 200 M20 220 L40 220"/>
    <path d="M460 220 L460 200 M460 220 L440 220"/>
  </g>
</svg>
