<svg xmlns="http://www.w3.org/2000/svg" viewBox="0 0 480 240" preserveAspectRatio="xMidYMid slice" role="img" aria-label="Cybersecurity illustration">
  <defs>
    <linearGradient id="cyberBg" x1="0%" y1="0%" x2="100%" y2="100%">
      <stop offset="0%" stop-color="#1a1430" stop-opacity="1"/>
      <stop offset="100%" stop-color="#0f1422" stop-opacity="1"/>
    </linearGradient>
    <linearGradient id="cyberShield" x1="0%" y1="0%" x2="0%" y2="100%">
      <stop offset="0%" stop-color="#b69bff"/>
      <stop offset="100%" stop-color="#9b7aff" stop-opacity="0.4"/>
    </linearGradient>
    <radialGradient id="cyberGlow" cx="50%" cy="55%" r="55%">
      <stop offset="0%" stop-color="#9b7aff" stop-opacity="0.35"/>
      <stop offset="100%" stop-color="#9b7aff" stop-opacity="0"/>
    </radialGradient>
    <pattern id="cyberGrid" width="24" height="24" patternUnits="userSpaceOnUse">
      <path d="M24 0 L0 0 0 24" fill="none" stroke="#9b7aff" stroke-opacity="0.08" stroke-width="1"/>
    </pattern>
  </defs>

  <rect width="480" height="240" fill="url(#cyberBg)"/>
  <rect width="480" height="240" fill="url(#cyberGrid)"/>
  <circle cx="240" cy="132" r="120" fill="url(#cyberGlow)"/>

  <g transform="translate(240 130)" fill="none" stroke="#4dd6ff" stroke-opacity="0.22">
    <circle r="96"/>
    <circle r="70"/>
    <circle r="44"/>
  </g>

  <g transform="translate(240 130)">
    <path d="M0 -64 L50 -42 L50 10 C50 42 26 62 0 72 C-26 62 -50 42 -50 10 L-50 -42 Z"
          fill="url(#cyberShield)" stroke="#b69bff" stroke-width="1.5"/>
    <path d="M-20 4 L-6 18 L22 -12" fill="none" stroke="#ffffff" stroke-width="4"
          stroke-linecap="round" stroke-linejoin="round"/>
  </g>

  <g fill="#4dd6ff">
    <circle cx="120" cy="130" r="3"/>
    <circle cx="360" cy="130" r="3"/>
    <circle cx="240" cy="34" r="3"/>
    <circle cx="240" cy="226" r="3"/>
  </g>
</svg>
