<svg xmlns="http://www.w3.org/2000/svg" viewBox="0 0 480 240" preserveAspectRatio="xMidYMid slice" role="img" aria-label="Outsourcing teams illustration">
  <defs>
    <linearGradient id="outBg" x1="0%" y1="0%" x2="100%" y2="100%">
      <stop offset="0%" stop-color="#1a1430" stop-opacity="1"/>
      <stop offset="100%" stop-color="#0f1422" stop-opacity="1"/>
    </linearGradient>
    <radialGradient id="outGlow" cx="50%" cy="55%" r="50%">
      <stop offset="0%" stop-color="#4dd6ff" stop-opacity="0.3"/>
      <stop offset="100%" stop-color="#4dd6ff" stop-opacity="0"/>
    </radialGradient>
    <linearGradient id="outCenter" x1="0%" y1="0%" x2="100%" y2="100%">
      <stop offset="0%" stop-color="#4dd6ff"/>
      <stop offset="100%" stop-color="#9b7aff"/>
    </linearGradient>
    <pattern id="outGrid" width="24" height="24" patternUnits="userSpaceOnUse">
      <path d="M24 0 L0 0 0 24" fill="none" stroke="#9b7aff" stroke-opacity="0.08" stroke-width="1"/>
    </pattern>
  </defs>

  <rect width="480" height="240" fill="url(#outBg)"/>
  <rect width="480" height="240" fill="url(#outGrid)"/>
  <circle cx="240" cy="130" r="110" fill="url(#outGlow)"/>

  <!-- connection lines -->
  <g stroke="#4dd6ff" stroke-opacity="0.35" stroke-width="1">
    <line x1="240" y1="130" x2="120" y2="70"/>
    <line x1="240" y1="130" x2="360" y2="70"/>
    <line x1="240" y1="130" x2="96" y2="140"/>
    <line x1="240" y1="130" x2="384" y2="140"/>
    <line x1="240" y1="130" x2="140" y2="200"/>
    <line x1="240" y1="130" x2="340" y2="200"/>
  </g>

  <!-- peripheral members -->
  <g>
    <g transform="translate(120 70)">
      <circle r="16" fill="#0f1422" stroke="#4dd6ff" stroke-width="1.5"/>
      <circle cy="-3" r="4.5" fill="#4dd6ff"/>
      <path d="M-7 7 Q0 2 7 7 L7 10 L-7 10 Z" fill="#4dd6ff"/>
    </g>
    <g transform="translate(360 70)">
      <circle r="16" fill="#0f1422" stroke="#9b7aff" stroke-width="1.5"/>
      <circle cy="-3" r="4.5" fill="#9b7aff"/>
      <path d="M-7 7 Q0 2 7 7 L7 10 L-7 10 Z" fill="#9b7aff"/>
    </g>
    <g transform="translate(96 140)">
      <circle r="16" fill="#0f1422" stroke="#9b7aff" stroke-width="1.5"/>
      <circle cy="-3" r="4.5" fill="#9b7aff"/>
      <path d="M-7 7 Q0 2 7 7 L7 10 L-7 10 Z" fill="#9b7aff"/>
    </g>
    <g transform="translate(384 140)">
      <circle r="16" fill="#0f1422" stroke="#4dd6ff" stroke-width="1.5"/>
      <circle cy="-3" r="4.5" fill="#4dd6ff"/>
      <path d="M-7 7 Q0 2 7 7 L7 10 L-7 10 Z" fill="#4dd6ff"/>
    </g>
    <g transform="translate(140 200)">
      <circle r="16" fill="#0f1422" stroke="#ffb86b" stroke-width="1.5"/>
      <circle cy="-3" r="4.5" fill="#ffb86b"/>
      <path d="M-7 7 Q0 2 7 7 L7 10 L-7 10 Z" fill="#ffb86b"/>
    </g>
    <g transform="translate(340 200)">
      <circle r="16" fill="#0f1422" stroke="#ffb86b" stroke-width="1.5"/>
      <circle cy="-3" r="4.5" fill="#ffb86b"/>
      <path d="M-7 7 Q0 2 7 7 L7 10 L-7 10 Z" fill="#ffb86b"/>
    </g>
  </g>

  <!-- center hub -->
  <g transform="translate(240 130)">
    <rect x="-42" y="-28" width="84" height="56" rx="10"
          fill="url(#outCenter)" fill-opacity="0.18"
          stroke="#4dd6ff" stroke-width="1.5"/>
    <rect x="-28" y="-14" width="56" height="3" rx="1.5" fill="#4dd6ff" fill-opacity="0.7"/>
    <rect x="-28" y="-6" width="40" height="3" rx="1.5" fill="#9b7aff" fill-opacity="0.7"/>
    <rect x="-28" y="2" width="50" height="3" rx="1.5" fill="#ffb86b" fill-opacity="0.7"/>
    <rect x="-28" y="10" width="28" height="3" rx="1.5" fill="#4dd6ff" fill-opacity="0.7"/>
  </g>
</svg>
